<svg width="348" height="276" viewBox="0 0 348 276" fill="none" xmlns="http://www.w3.org/2000/svg">
<path d="M24 12C24 18.6274 18.6274 24 12 24C5.37258 24 0 18.6274 0 12C0 5.37258 5.37258 0 12 0C18.6274 0 24 5.37258 24 12Z" fill="#3CB7C6" fill-opacity="0.1"/>
<path d="M24 180C24 186.627 18.6274 192 12 192C5.37258 192 0 186.627 0 180C0 173.373 5.37258 168 12 168C18.6274 168 24 173.373 24 180Z" fill="#3CB7C6" fill-opacity="0.1"/>
<path d="M24 96C24 102.627 18.6274 108 12 108C5.37258 108 0 102.627 0 96C0 89.3726 5.37258 84 12 84C18.6274 84 24 89.3726 24 96Z" fill="#3CB7C6" fill-opacity="0.1"/>
<path d="M24 264C24 270.627 18.6274 276 12 276C5.37258 276 0 270.627 0 264C0 257.373 5.37258 252 12 252C18.6274 252 24 257.373 24 264Z" fill="#3CB7C6" fill-opacity="0.1"/>
<path d="M444 12C444 18.6274 438.627 24 432 24C425.373 24 420 18.6274 420 12C420 5.37258 425.373 0 432 0C438.627 0 444 5.37258 444 12Z" fill="#3CB7C6" fill-opacity="0.1"/>
<path d="M444 180C444 186.627 438.627 192 432 192C425.373 192 420 186.627 420 180C420 173.373 425.373 168 432 168C438.627 168 444 173.373 444 180Z" fill="#3CB7C6" fill-opacity="0.1"/>
<path d="M444 96C444 102.627 438.627 108 432 108C425.373 108 420 102.627 420 96C420 89.3726 425.373 84 432 84C438.627 84 444 89.3726 444 96Z" fill="#3CB7C6" fill-opacity="0.1"/>
<path d="M444 264C444 270.627 438.627 276 432 276C425.373 276 420 270.627 420 264C420 257.373 425.373 252 432 252C438.627 252 444 257.373 444 264Z" fill="#3CB7C6" fill-opacity="0.1"/>
<path d="M108 12C108 18.6274 102.627 24 96 24C89.3726 24 84 18.6274 84 12C84 5.37258 89.3726 0 96 0C102.627 0 108 5.37258 108 12Z" fill="#3CB7C6" fill-opacity="0.1"/>
<path d="M108 180C108 186.627 102.627 192 96 192C89.3726 192 84 186.627 84 180C84 173.373 89.3726 168 96 168C102.627 168 108 173.373 108 180Z" fill="#3CB7C6" fill-opacity="0.1"/>
<path d="M108 96C108 102.627 102.627 108 96 108C89.3726 108 84 102.627 84 96C84 89.3726 89.3726 84 96 84C102.627 84 108 89.3726 108 96Z" fill="#3CB7C6" fill-opacity="0.1"/>
<path d="M108 264C108 270.627 102.627 276 96 276C89.3726 276 84 270.627 84 264C84 257.373 89.3726 252 96 252C102.627 252 108 257.373 108 264Z" fill="#3CB7C6" fill-opacity="0.1"/>
<path d="M528 12C528 18.6274 522.627 24 516 24C509.373 24 504 18.6274 504 12C504 5.37258 509.373 0 516 0C522.627 0 528 5.37258 528 12Z" fill="#3CB7C6" fill-opacity="0.1"/>
<path d="M528 180C528 186.627 522.627 192 516 192C509.373 192 504 186.627 504 180C504 173.373 509.373 168 516 168C522.627 168 528 173.373 528 180Z" fill="#3CB7C6" fill-opacity="0.1"/>
<path d="M528 96C528 102.627 522.627 108 516 108C509.373 108 504 102.627 504 96C504 89.3726 509.373 84 516 84C522.627 84 528 89.3726 528 96Z" fill="#3CB7C6" fill-opacity="0.1"/>
<path d="M528 264C528 270.627 522.627 276 516 276C509.373 276 504 270.627 504 264C504 257.373 509.373 252 516 252C522.627 252 528 257.373 528 264Z" fill="#3CB7C6" fill-opacity="0.1"/>
<path d="M192 12C192 18.6274 186.627 24 180 24C173.373 24 168 18.6274 168 12C168 5.37258 173.373 0 180 0C186.627 0 192 5.37258 192 12Z" fill="#3CB7C6" fill-opacity="0.1"/>
<path d="M192 180C192 186.627 186.627 192 180 192C173.373 192 168 186.627 168 180C168 173.373 173.373 168 180 168C186.627 168 192 173.373 192 180Z" fill="#3CB7C6" fill-opacity="0.1"/>
<path d="M192 96C192 102.627 186.627 108 180 108C173.373 108 168 102.627 168 96C168 89.3726 173.373 84 180 84C186.627 84 192 89.3726 192 96Z" fill="#3CB7C6" fill-opacity="0.1"/>
<path d="M192 264C192 270.627 186.627 276 180 276C173.373 276 168 270.627 168 264C168 257.373 173.373 252 180 252C186.627 252 192 257.373 192 264Z" fill="#3CB7C6" fill-opacity="0.1"/>
<path d="M612 12C612 18.6274 606.627 24 600 24C593.373 24 588 18.6274 588 12C588 5.37258 593.373 0 600 0C606.627 0 612 5.37258 612 12Z" fill="#3CB7C6" fill-opacity="0.1"/>
<path d="M612 180C612 186.627 606.627 192 600 192C593.373 192 588 186.627 588 180C588 173.373 593.373 168 600 168C606.627 168 612 173.373 612 180Z" fill="#3CB7C6" fill-opacity="0.1"/>
<path d="M612 96C612 102.627 606.627 108 600 108C593.373 108 588 102.627 588 96C588 89.3726 593.373 84 600 84C606.627 84 612 89.3726 612 96Z" fill="#3CB7C6" fill-opacity="0.1"/>
<path d="M612 264C612 270.627 606.627 276 600 276C593.373 276 588 270.627 588 264C588 257.373 593.373 252 600 252C606.627 252 612 257.373 612 264Z" fill="#3CB7C6" fill-opacity="0.1"/>
<path d="M276 12C276 18.6274 270.627 24 264 24C257.373 24 252 18.6274 252 12C252 5.37258 257.373 0 264 0C270.627 0 276 5.37258 276 12Z" fill="#3CB7C6" fill-opacity="0.1"/>
<path d="M276 180C276 186.627 270.627 192 264 192C257.373 192 252 186.627 252 180C252 173.373 257.373 168 264 168C270.627 168 276 173.373 276 180Z" fill="#3CB7C6" fill-opacity="0.1"/>
<path d="M276 96C276 102.627 270.627 108 264 108C257.373 108 252 102.627 252 96C252 89.3726 257.373 84 264 84C270.627 84 276 89.3726 276 96Z" fill="#3CB7C6" fill-opacity="0.1"/>
<path d="M276 264C276 270.627 270.627 276 264 276C257.373 276 252 270.627 252 264C252 257.373 257.373 252 264 252C270.627 252 276 257.373 276 264Z" fill="#3CB7C6" fill-opacity="0.1"/>
<path d="M696 12C696 18.6274 690.627 24 684 24C677.373 24 672 18.6274 672 12C672 5.37258 677.373 0 684 0C690.627 0 696 5.37258 696 12Z" fill="#3CB7C6" fill-opacity="0.1"/>
<path d="M696 180C696 186.627 690.627 192 684 192C677.373 192 672 186.627 672 180C672 173.373 677.373 168 684 168C690.627 168 696 173.373 696 180Z" fill="#3CB7C6" fill-opacity="0.1"/>
<path d="M696 96C696 102.627 690.627 108 684 108C677.373 108 672 102.627 672 96C672 89.3726 677.373 84 684 84C690.627 84 696 89.3726 696 96Z" fill="#3CB7C6" fill-opacity="0.1"/>
<path d="M696 264C696 270.627 690.627 276 684 276C677.373 276 672 270.627 672 264C672 257.373 677.373 252 684 252C690.627 252 696 257.373 696 264Z" fill="#3CB7C6" fill-opacity="0.1"/>
<path d="M360 12C360 18.6274 354.627 24 348 24C341.373 24 336 18.6274 336 12C336 5.37258 341.373 0 348 0C354.627 0 360 5.37258 360 12Z" fill="#3CB7C6" fill-opacity="0.1"/>
<path d="M360 180C360 186.627 354.627 192 348 192C341.373 192 336 186.627 336 180C336 173.373 341.373 168 348 168C354.627 168 360 173.373 360 180Z" fill="#3CB7C6" fill-opacity="0.1"/>
<path d="M360 96C360 102.627 354.627 108 348 108C341.373 108 336 102.627 336 96C336 89.3726 341.373 84 348 84C354.627 84 360 89.3726 360 96Z" fill="#3CB7C6" fill-opacity="0.1"/>
<path d="M360 264C360 270.627 354.627 276 348 276C341.373 276 336 270.627 336 264C336 257.373 341.373 252 348 252C354.627 252 360 257.373 360 264Z" fill="#3CB7C6" fill-opacity="0.1"/>
<path d="M780 12C780 18.6274 774.627 24 768 24C761.373 24 756 18.6274 756 12C756 5.37258 761.373 0 768 0C774.627 0 780 5.37258 780 12Z" fill="#3CB7C6" fill-opacity="0.1"/>
<path d="M780 180C780 186.627 774.627 192 768 192C761.373 192 756 186.627 756 180C756 173.373 761.373 168 768 168C774.627 168 780 173.373 780 180Z" fill="#3CB7C6" fill-opacity="0.1"/>
<path d="M780 96C780 102.627 774.627 108 768 108C761.373 108 756 102.627 756 96C756 89.3726 761.373 84 768 84C774.627 84 780 89.3726 780 96Z" fill="#3CB7C6" fill-opacity="0.1"/>
<path d="M780 264C780 270.627 774.627 276 768 276C761.373 276 756 270.627 756 264C756 257.373 761.373 252 768 252C774.627 252 780 257.373 780 264Z" fill="#3CB7C6" fill-opacity="0.1"/>
</svg>
