<svg width="76" height="148" viewBox="0 0 76 148" fill="none" xmlns="http://www.w3.org/2000/svg">
<path opacity="0.5" fill-rule="evenodd" clip-rule="evenodd" d="M16.443 31.8322C9.98285 35.5868 3.43561 28.6465 6.97653 21.7971C7.44764 20.8858 8.16882 20.1211 9.02833 19.6216C15.4889 15.8661 22.0367 22.8074 18.4948 29.6567C18.0236 30.5681 17.3025 31.3327 16.443 31.8322ZM25.4717 24.0283C25.4717 15.061 16.0457 9.3799 6.43602 13.8751C4.26558 14.8903 2.46977 16.6086 1.37938 18.7201C-1.03817 23.4018 0.0290753 28.7478 2.22166 33.1869L9.70078 52.1346C10.7789 54.8657 14.6511 54.8494 15.706 52.1095L23.0389 33.0629C25.5781 27.2617 25.4717 24.0283 25.4717 24.0283Z" fill="#00B8C7"/>
<path fill-rule="evenodd" clip-rule="evenodd" d="M36.6699 51.2343C36.6563 51.2225 36.7886 51.0418 37.0391 50.727C37.3262 50.371 37.6842 49.9263 38.1095 49.399C39.0104 48.277 40.2491 46.7223 41.5529 44.9572C42.8601 43.194 43.9884 41.5571 44.7954 40.3661C45.1764 39.8057 45.4966 39.3333 45.7529 38.9554C45.9816 38.6235 46.1145 38.444 46.1304 38.4535C46.1458 38.4635 46.0418 38.6613 45.8398 39.0103C45.6383 39.3593 45.3377 39.8589 44.9519 40.4683C44.1834 41.6876 43.0763 43.3458 41.7649 45.1143C40.4576 46.8846 39.1923 48.4253 38.2525 49.5183C37.7805 50.0633 37.3935 50.4997 37.1171 50.7938C36.8424 51.0884 36.6841 51.2461 36.6699 51.2343Z" fill="#D4D5CF"/>
<path fill-rule="evenodd" clip-rule="evenodd" d="M22.104 48.8024C22.1064 48.7847 22.3126 48.7989 22.683 48.8396C23.1083 48.8934 23.6311 48.9595 24.2472 49.0374C25.5669 49.2169 27.3864 49.4815 29.3937 49.7903C31.4009 50.0991 33.2163 50.3938 34.5289 50.6194C35.1397 50.7304 35.6583 50.8243 36.0801 50.9005C36.4458 50.9731 36.646 51.0215 36.6431 51.0392C36.6407 51.0575 36.4345 51.0433 36.0647 51.002C35.6388 50.9483 35.1166 50.8821 34.4999 50.8042C33.1808 50.6253 31.3614 50.3601 29.3535 50.0513C27.3462 49.7425 25.5309 49.4484 24.2189 49.2223C23.6081 49.1113 23.0894 49.0174 22.667 48.9412C22.302 48.8691 22.1011 48.8207 22.104 48.8024Z" fill="#D4D5CF"/>
<path fill-rule="evenodd" clip-rule="evenodd" d="M27.0689 67.7624C27.0713 67.7441 27.3347 67.7648 27.8091 67.8173C28.3319 67.8811 29.0059 67.9644 29.8152 68.0636C31.507 68.2832 33.8416 68.605 36.4178 68.9765C38.9951 69.3479 41.3261 69.6987 43.0109 69.9656C43.8155 70.0984 44.4853 70.2094 45.0046 70.2951C45.4748 70.3789 45.733 70.4338 45.7306 70.4515C45.7276 70.4692 45.4642 70.4492 44.9898 70.3966C44.4676 70.3323 43.7936 70.2496 42.9843 70.1498C41.2925 69.9301 38.9573 69.6089 36.3805 69.2375C33.8038 68.866 31.4734 68.5159 29.7886 68.2484C28.984 68.1155 28.3142 68.0045 27.7949 67.9189C27.3247 67.835 27.0659 67.7801 27.0689 67.7624Z" fill="#D4D5CF"/>
<path fill-rule="evenodd" clip-rule="evenodd" d="M45.3026 70.2619C45.2884 70.2501 45.4497 70.0174 45.7539 69.6064C46.0883 69.1594 46.5242 68.5772 47.05 67.8751C48.1417 66.4112 49.6427 64.384 51.2365 62.0994C52.8338 59.8165 54.225 57.7126 55.2215 56.1826C55.7012 55.448 56.0988 54.838 56.4036 54.3703C56.6842 53.944 56.8472 53.7125 56.8626 53.722C56.8785 53.7314 56.745 53.9812 56.491 54.4247C56.237 54.8681 55.8595 55.5041 55.3793 56.2824C54.4223 57.8395 53.053 59.9641 51.4527 62.2506C49.8565 64.5393 48.3289 66.5523 47.1977 67.9884C46.63 68.7047 46.1651 69.2805 45.8349 69.6708C45.5052 70.0617 45.3168 70.2725 45.3026 70.2619Z" fill="#D4D5CF"/>
<path fill-rule="evenodd" clip-rule="evenodd" d="M73.9733 54.5832C71.6139 41.663 70.0249 39.6783 68.6892 35.2331C67.3689 30.8403 65.2335 27.8979 62.59 26.8816C60.8071 26.196 51.9185 22.9896 48.8213 24.0531C45.375 25.2359 42.3693 26.9513 40.2392 28.362C38.1645 29.7355 36.5956 31.7438 35.7591 34.0869L31.002 47.4139L39.3224 55.7087L43.4917 46.8494L48.0173 57.4524L47.3474 68.1718L73.3034 75.1521C75.6681 71.3729 75.3125 61.9143 73.9733 54.5832Z" fill="#364C60"/>
<path fill-rule="evenodd" clip-rule="evenodd" d="M54.9797 65.5432C53.9039 65.5432 52.8176 65.3944 52.0042 65.0354C50.5244 64.3823 49.2638 61.5113 49.8734 60.0126C51.1872 60.2937 51.9587 60.6698 52.7715 60.6698C53.3203 60.6698 53.8868 60.4986 54.6518 60.0126C56.3076 58.9609 58.6558 56.6349 59.556 54.8929C63.3438 47.5684 64.3846 47.308 67.2142 40.4912C66.0688 47.2164 65.8857 48.1453 64.7397 54.8705C64.3462 57.1794 63.1961 60.7808 61.5515 62.4484C60.3328 63.6843 59.1384 64.8748 57.4489 65.2746C56.7388 65.4428 55.8628 65.5432 54.9797 65.5432Z" fill="#223240"/>
<path fill-rule="evenodd" clip-rule="evenodd" d="M48.4334 53.5213C48.395 53.5426 47.9673 52.8535 47.2874 51.7345C46.5596 50.5482 45.6351 49.0418 44.6125 47.3754C43.5652 45.7237 42.6182 44.2316 41.8727 43.0559C41.1668 41.9534 40.7356 41.2666 40.7716 41.2418C40.7893 41.23 40.9199 41.3853 41.1426 41.677C41.3653 41.9687 41.6766 42.3986 42.0535 42.9348C42.8067 44.0083 43.8139 45.5147 44.8736 47.2124C45.9328 48.9101 46.8426 50.4773 47.4752 51.6252C47.7919 52.1998 48.0411 52.6681 48.2048 52.9964C48.3696 53.3247 48.4517 53.5107 48.4334 53.5213Z" fill="#132529"/>
<path fill-rule="evenodd" clip-rule="evenodd" d="M66.5414 65.5854C66.5478 65.6054 66.331 65.6863 65.9322 65.8145C65.7332 65.8824 65.4874 65.9568 65.1962 66.0194C64.9055 66.0849 64.5771 66.1753 64.2049 66.2267C63.4665 66.3631 62.5728 66.4469 61.578 66.464C60.5844 66.4646 59.4898 66.389 58.3585 66.1889C57.229 65.9763 56.1775 65.6615 55.2477 65.3102C54.3232 64.9429 53.5169 64.549 52.8742 64.1605C52.544 63.981 52.2687 63.7808 52.02 63.6166C51.7695 63.4548 51.5663 63.2989 51.4039 63.1661C51.076 62.9045 50.9017 62.7527 50.9147 62.7362C50.9502 62.6884 51.6791 63.2606 52.9811 63.9709C53.6291 64.3305 54.4331 64.6984 55.3482 65.0451C56.2685 65.3763 57.3035 65.6775 58.414 65.8859C59.5258 66.0826 60.6003 66.1658 61.578 66.1812C62.5562 66.1794 63.4382 66.1192 64.1719 66.0117C65.6404 65.8062 66.5247 65.5287 66.5414 65.5854Z" fill="#132529"/>
<path fill-rule="evenodd" clip-rule="evenodd" d="M56.1281 45.4556C56.0832 45.6864 53.2914 51.2372 53.2914 51.2372L40.1318 44.3064L38.7879 38.6364C38.5782 37.7519 38.0335 36.9825 37.2685 36.4888C36.4569 35.9656 35.4656 35.7967 34.527 36.0229L30.6465 37.6113C30.3239 37.743 30.0717 38.02 30.0079 38.3619C29.9541 38.6494 30.0244 38.927 30.5201 38.888C31.4841 38.813 33.492 38.5998 33.492 38.5998L32.5758 41.8287C32.3354 42.6749 32.4287 43.5819 32.8357 44.3619L33.4193 45.4798L34.7018 47.5536L34.6758 47.5719C34.6758 47.5719 47.4686 60.7082 54.6519 61.5633C58.9677 62.0764 63.8602 49.9782 63.8602 49.9782L56.1281 45.4556Z" fill="#F9E3B3"/>
<path fill-rule="evenodd" clip-rule="evenodd" d="M33.3811 38.8176C33.3669 38.7969 33.4803 38.6806 33.7007 38.5347C33.9175 38.3948 34.266 38.2106 34.6966 38.2277C35.1379 38.2531 35.4646 38.5395 35.5792 38.794C35.6985 39.0579 35.6182 39.2392 35.601 39.2292C35.568 39.2274 35.5886 39.0603 35.4593 38.8583C35.3376 38.6617 35.0457 38.4391 34.6872 38.4196C34.3203 38.4036 33.9937 38.5465 33.7674 38.6534C33.5388 38.7633 33.397 38.8406 33.3811 38.8176Z" fill="#AC6150"/>
<path fill-rule="evenodd" clip-rule="evenodd" d="M35.0373 40.8319C35.0095 40.8419 34.9528 40.725 34.8258 40.5691C34.7012 40.4138 34.4944 40.2237 34.2174 40.1132C33.9391 40.0034 33.6579 40.0016 33.4606 40.0294C33.2622 40.0566 33.1399 40.1032 33.1269 40.0772C33.1151 40.0566 33.219 39.9633 33.4317 39.8971C33.6402 39.8304 33.9645 39.8068 34.2877 39.9343C34.6108 40.0625 34.8317 40.301 34.9386 40.4923C35.0479 40.686 35.0597 40.8254 35.0373 40.8319Z" fill="#AC6150"/>
<path fill-rule="evenodd" clip-rule="evenodd" d="M58.8577 27.9349L55.2944 44.8185L64.7396 50.4926L68.369 40.1169C68.369 40.1169 66.8674 27.5192 58.8577 27.9349Z" fill="#364C60"/>
<path fill-rule="evenodd" clip-rule="evenodd" d="M63.9503 28.2321C63.9549 28.2422 63.8716 28.2935 63.7091 28.3833C63.5467 28.473 63.3062 28.6035 62.9914 28.7618C62.364 29.0824 61.4472 29.53 60.2947 30.0426C57.995 31.0594 54.72 32.355 50.9039 33.001C47.086 33.6494 43.5222 33.347 41.086 32.6691C39.8632 32.3396 38.9068 31.9641 38.2694 31.6588C37.9457 31.5177 37.71 31.3754 37.5446 31.2903C37.3821 31.2012 37.2989 31.1492 37.3039 31.1403C37.316 31.1167 37.6686 31.2821 38.3179 31.5496C38.9653 31.8188 39.9235 32.1595 41.1392 32.4583C43.5629 33.0748 47.0772 33.3382 50.8531 32.6975C54.629 32.0586 57.894 30.8055 60.2085 29.8424C61.3681 29.3576 62.2973 28.9413 62.94 28.6537C63.5827 28.3667 63.9401 28.2126 63.9503 28.2321Z" fill="#E4E4DE"/>
<path fill-rule="evenodd" clip-rule="evenodd" d="M66.4359 30.0969C66.441 30.1057 66.3512 30.1713 66.1734 30.2888C65.9649 30.4222 65.7056 30.5882 65.3895 30.7901C65.0493 31.0104 64.6269 31.2684 64.1153 31.5306C63.6073 31.7981 63.0402 32.1294 62.3756 32.4163C62.0454 32.5681 61.701 32.7264 61.3425 32.8905C60.9821 33.0529 60.5934 33.1893 60.1988 33.3482C59.4119 33.6777 58.5412 33.9428 57.6303 34.2392C55.792 34.7766 53.7309 35.2384 51.5352 35.5094C49.3353 35.7586 47.2229 35.7905 45.3095 35.6966C44.3549 35.6204 43.4457 35.5661 42.604 35.4291C42.1828 35.3671 41.7734 35.3252 41.3847 35.2514C40.9984 35.1752 40.6262 35.1014 40.27 35.0311C39.5564 34.9071 38.9278 34.7169 38.3708 34.5758C37.812 34.44 37.3412 34.2877 36.9595 34.153C36.6045 34.0302 36.3139 33.9292 36.0799 33.8483C35.8803 33.7757 35.7769 33.7326 35.7804 33.7225C35.784 33.7125 35.8939 33.7361 36.1 33.7899C36.3375 33.856 36.6329 33.9381 36.9944 34.0385C37.3801 34.1554 37.8539 34.29 38.4139 34.4093C38.9722 34.5339 39.6001 34.7081 40.3125 34.8179C40.6675 34.8817 41.0379 34.9478 41.4231 35.0169C41.81 35.0842 42.2176 35.1203 42.6364 35.1764C43.4735 35.3015 44.3767 35.3458 45.3248 35.4137C47.224 35.4905 49.3176 35.4509 51.4985 35.2041C53.6766 34.9348 55.7211 34.4855 57.55 33.9676C58.4556 33.6806 59.3233 33.4267 60.1078 33.1102C60.5018 32.9573 60.8899 32.8279 61.2503 32.672C61.6089 32.515 61.9539 32.3632 62.2847 32.2185C62.951 31.9463 63.5216 31.6304 64.035 31.3788C64.5513 31.132 64.9807 30.8905 65.3287 30.6874C65.6565 30.5055 65.9247 30.3561 66.1409 30.2362C66.3282 30.1364 66.4298 30.0874 66.4359 30.0969Z" fill="#E4E4DE"/>
<path fill-rule="evenodd" clip-rule="evenodd" d="M64.7396 50.493C64.7308 50.5084 64.4614 50.3702 63.9729 50.1027C63.4495 49.8092 62.7507 49.4177 61.8923 48.9364C60.0912 47.8989 57.6261 46.4788 54.7882 44.8443L54.6973 44.7911L54.7174 44.6896C54.9708 43.4283 55.2431 42.0754 55.5237 40.6789C55.9537 38.5785 56.3619 36.5802 56.7353 34.755C56.9326 33.8468 57.0885 32.9787 57.2687 32.1662C57.456 31.3561 57.6946 30.6061 58.0266 29.9719C58.6776 28.6787 59.7173 27.9784 60.4693 27.7363C60.8503 27.6135 61.1634 27.5822 61.3725 27.5875C61.5816 27.5916 61.6897 27.6135 61.6885 27.6217C61.6921 27.6607 61.239 27.5786 60.5089 27.8485C59.7964 28.1172 58.8217 28.8145 58.221 30.0699C57.9126 30.6888 57.6917 31.421 57.5174 32.2217C57.3597 33.0337 57.1913 33.8982 57.0141 34.8063C56.6484 36.6328 56.2473 38.6328 55.8267 40.7344C55.542 42.1309 55.2661 43.4826 55.0092 44.7427L54.9383 44.5886C57.7543 46.2603 60.1999 47.7129 61.9874 48.7741C62.8275 49.286 63.5115 49.7035 64.0243 50.0159C64.4963 50.3105 64.7485 50.4776 64.7396 50.493Z" fill="#132529"/>
<path fill-rule="evenodd" clip-rule="evenodd" d="M67.6323 39.6182C67.6701 39.6206 67.6772 40.2235 67.5851 41.1925C67.4935 42.1603 67.285 43.4937 66.9069 44.9321C66.5271 46.3706 66.0521 47.6337 65.6552 48.5218C65.2582 49.4105 64.9557 49.9313 64.9209 49.9148C64.879 49.8947 65.1117 49.342 65.4537 48.4391C65.7969 47.5362 66.2335 46.2767 66.6098 44.8536C66.9831 43.4311 67.223 42.1196 67.3689 41.1653C67.516 40.2111 67.5857 39.6147 67.6323 39.6182Z" fill="#132529"/>
<path fill-rule="evenodd" clip-rule="evenodd" d="M16.3827 133.521L16.2781 142.535C16.2781 142.535 7.07696 145.457 6.89502 147.121L24.3741 147.952L25.1131 133.912L16.3827 133.521Z" fill="#334F55"/>
<path fill-rule="evenodd" clip-rule="evenodd" d="M21.7186 142.036C22.0529 142.144 22.2686 142.535 22.1734 142.873C22.0789 143.211 21.6825 143.434 21.347 143.331C21.0115 143.229 20.738 142.767 20.8697 142.442C21.002 142.116 21.4817 141.88 21.783 142.061" fill="#D4D5CF"/>
<path fill-rule="evenodd" clip-rule="evenodd" d="M24.374 147.952L24.3929 146.534L7.62749 146.269C7.62749 146.269 6.83356 146.57 6.89499 147.122L24.374 147.952Z" fill="#D4D5CF"/>
<path fill-rule="evenodd" clip-rule="evenodd" d="M15.9993 142.434C15.9981 142.519 16.4229 142.579 16.8299 142.873C17.2446 143.156 17.4437 143.536 17.5234 143.506C17.6032 143.493 17.4998 142.977 17.0012 142.629C16.5056 142.278 15.9846 142.355 15.9993 142.434Z" fill="#132529"/>
<path fill-rule="evenodd" clip-rule="evenodd" d="M14.1305 143.104C14.1069 143.186 14.4696 143.348 14.7425 143.723C15.026 144.089 15.081 144.483 15.166 144.484C15.2452 144.5 15.3285 144.004 14.98 143.544C14.6362 143.083 14.1364 143.022 14.1305 143.104Z" fill="#132529"/>
<path fill-rule="evenodd" clip-rule="evenodd" d="M12.985 145.248C13.0618 145.27 13.2006 144.849 13.0033 144.371C12.8101 143.892 12.4161 143.689 12.3765 143.758C12.3251 143.826 12.5727 144.089 12.728 144.484C12.8934 144.875 12.9005 145.235 12.985 145.248Z" fill="#132529"/>
<path fill-rule="evenodd" clip-rule="evenodd" d="M16.251 140.382C16.2835 140.462 16.6805 140.362 17.1613 140.417C17.6434 140.463 18.0108 140.643 18.0592 140.572C18.1112 140.512 17.7597 140.18 17.1926 140.122C16.6255 140.06 16.2126 140.313 16.251 140.382Z" fill="#132529"/>
<path fill-rule="evenodd" clip-rule="evenodd" d="M24.9377 137.242L16.3438 136.912L16.3644 135.306L25.0139 135.797L24.9424 137.152L24.9377 137.242Z" fill="#1E3337"/>
<path fill-rule="evenodd" clip-rule="evenodd" d="M16.3057 138.563C16.3027 138.598 16.6377 138.666 17.1812 138.6C17.4517 138.566 17.7719 138.493 18.1104 138.362C18.2793 138.296 18.453 138.216 18.6255 138.12C18.7088 138.071 18.8068 138.024 18.8996 137.927C18.9982 137.842 19.0632 137.618 18.9604 137.474C18.8771 137.336 18.7218 137.27 18.596 137.262C18.4672 137.251 18.3614 137.272 18.2652 137.291C18.0684 137.329 17.8829 137.385 17.7122 137.452C17.3708 137.588 17.0908 137.767 16.8799 137.943C16.4563 138.299 16.3027 138.612 16.3311 138.629C16.3689 138.659 16.5786 138.401 17.0063 138.111C17.219 137.967 17.4895 137.82 17.8079 137.708C17.9668 137.654 18.1376 137.608 18.3177 137.578C18.505 137.537 18.6627 137.544 18.7064 137.628L18.6822 137.726C18.6403 137.774 18.5629 137.819 18.4808 137.866C18.3213 137.96 18.1618 138.041 18.0058 138.108C17.6939 138.246 17.3974 138.335 17.1445 138.393C16.6371 138.509 16.3063 138.516 16.3057 138.563Z" fill="#132529"/>
<path fill-rule="evenodd" clip-rule="evenodd" d="M16.4108 138.691C16.4403 138.706 16.624 138.408 16.6819 137.857C16.7091 137.584 16.6967 137.25 16.6081 136.894C16.5626 136.716 16.4982 136.532 16.4102 136.352C16.3157 136.175 16.2017 135.937 15.8726 135.884C15.7001 135.869 15.5501 135.997 15.4957 136.11C15.432 136.226 15.416 136.327 15.3906 136.427C15.3487 136.629 15.3428 136.829 15.3622 137.016C15.3995 137.39 15.5365 137.707 15.6931 137.938C16.0132 138.407 16.3641 138.525 16.373 138.497C16.4031 138.456 16.1136 138.276 15.8726 137.829C15.7545 137.608 15.6529 137.32 15.6352 136.994C15.6257 136.831 15.6363 136.659 15.6753 136.489C15.7114 136.304 15.7882 136.157 15.8567 136.18C15.9441 136.183 16.0847 136.33 16.1497 136.481C16.2318 136.642 16.2956 136.806 16.3434 136.966C16.438 137.287 16.4716 137.591 16.4716 137.847C16.4716 138.361 16.3647 138.677 16.4108 138.691Z" fill="#132529"/>
<path fill-rule="evenodd" clip-rule="evenodd" d="M52.0039 68.2659C52.0039 68.2659 24.7075 56.8208 16.2542 56.3307C10.953 56.0236 6.94432 59.4273 7.66501 64.9101C8.02535 67.653 15.5695 99.7585 15.5695 99.7585L27.0758 94.5036L21.5495 72.3085L43.9723 83.2062L52.0039 68.2659Z" fill="#132529"/>
<path fill-rule="evenodd" clip-rule="evenodd" d="M18.1028 66.6898C18.0136 66.766 18.9209 67.9311 19.8696 69.4735C20.8254 71.0117 21.4622 72.3433 21.5697 72.2984C21.6678 72.2606 21.1864 70.8334 20.2105 69.2627C19.2423 67.6884 18.1796 66.619 18.1028 66.6898Z" fill="#334F55"/>
<path fill-rule="evenodd" clip-rule="evenodd" d="M15.868 67.9659C15.8101 68.0669 17.1894 68.9408 18.8045 70.1319C20.4237 71.3176 21.6701 72.3722 21.7493 72.2872C21.8225 72.211 20.6836 71.0111 19.042 69.8083C17.4045 68.6013 15.9182 67.8732 15.868 67.9659Z" fill="#334F55"/>
<path fill-rule="evenodd" clip-rule="evenodd" d="M73.3037 75.1521C73.3037 75.1521 69.8686 79.5731 66.5948 80.7825C62.481 82.303 32.0626 96.6487 32.0626 96.6487C32.0626 96.6487 26.5458 137.621 26.9824 135.91L14.251 135.604L15.6362 97.8651C15.8022 93.0301 19.6756 87.4835 23.8379 85.0158L52.0044 68.2656L73.3037 75.1521Z" fill="#132529"/>
<path fill-rule="evenodd" clip-rule="evenodd" d="M15.3937 104.772C15.4073 104.772 15.425 104.594 15.4457 104.255C15.4652 103.875 15.4912 103.382 15.5231 102.77C15.5969 101.485 15.6666 99.6144 16.027 97.3445C16.4021 95.0959 17.0897 92.3772 18.7768 89.8635C19.6144 88.6116 20.7368 87.4755 22.0494 86.4846C23.3614 85.4908 24.8394 84.6204 26.3688 83.753C32.4953 80.2436 37.7829 76.6676 41.6917 74.2146C43.6388 72.9757 45.2231 71.9878 46.3236 71.3141C46.8446 70.9928 47.2641 70.7336 47.5884 70.534C47.8766 70.3533 48.0243 70.2524 48.0175 70.2405C48.0107 70.2281 47.8495 70.3055 47.5488 70.4638C47.2481 70.6238 46.8045 70.8582 46.2439 71.1794C45.1179 71.8125 43.5094 72.7649 41.5411 73.9743C37.5915 76.3676 32.2767 79.907 26.1703 83.4046C24.6386 84.2732 23.1452 85.1542 21.8114 86.1723C20.4769 87.1856 19.3226 88.3636 18.4702 89.6568C16.7547 92.2532 16.0908 95.0239 15.7464 97.3014C15.4185 99.5991 15.3925 101.476 15.3671 102.766C15.3665 103.378 15.3653 103.872 15.3647 104.253C15.3701 104.593 15.3795 104.772 15.3937 104.772Z" fill="#334F55"/>
<path fill-rule="evenodd" clip-rule="evenodd" d="M62.067 79.4709C62.1119 79.4201 61.7433 79.0752 61.2878 78.4227C60.8306 77.7738 60.3273 76.7829 60.0845 75.5978C59.8476 74.4103 59.9268 73.3013 60.0957 72.526C60.2617 71.7477 60.4679 71.2871 60.4065 71.2576C60.3698 71.2363 60.0674 71.6603 59.8211 72.4563C59.5718 73.2458 59.44 74.4233 59.6911 75.6775C59.9469 76.9299 60.5258 77.9633 61.0622 78.5946C61.5986 79.2323 62.0416 79.5051 62.067 79.4709Z" fill="#334F55"/>
<path fill-rule="evenodd" clip-rule="evenodd" d="M18.9273 135.605C18.9338 135.606 18.9474 135.534 18.9669 135.395C18.987 135.233 19.0118 135.029 19.0437 134.776C19.1052 134.201 19.1902 133.403 19.2983 132.391C19.5051 130.286 19.7993 127.295 20.162 123.61C20.3386 121.753 20.5318 119.722 20.7385 117.544C20.95 115.365 21.1674 113.032 21.3381 110.577C21.5289 108.125 21.7611 105.553 22.2083 102.922C22.6708 100.298 23.356 97.6018 24.5469 95.0431C25.7172 92.4762 27.3771 90.2323 29.1694 88.2689C30.9871 86.3197 32.9583 84.6468 34.9343 83.1918C38.8922 80.2794 42.7981 78.1536 46.0134 76.277C49.2453 74.4222 51.8191 72.8397 53.5316 71.6475C54.3923 71.0582 55.0439 70.5775 55.4787 70.2415C55.6789 70.0838 55.8408 69.9569 55.969 69.8553C56.0782 69.7667 56.132 69.7183 56.1281 69.7124C56.1237 69.7071 56.0617 69.7449 55.9441 69.8228C55.8095 69.9155 55.6405 70.0319 55.4308 70.1765C54.9813 70.4901 54.3167 70.9501 53.4448 71.5188C51.7092 72.6673 49.1212 74.2079 45.8728 76.0308C42.641 77.8749 38.7126 79.9783 34.7146 82.8942C32.7191 84.3509 30.7248 86.0327 28.8805 88.002C27.0617 89.9861 25.3751 92.2607 24.1825 94.8748C22.9715 97.4778 22.2821 100.209 21.8207 102.855C21.3753 105.509 21.1503 108.093 20.9695 110.55C20.8082 113.008 20.6038 115.337 20.4065 117.518C20.2169 119.697 20.0409 121.728 19.879 123.585C19.5701 127.274 19.319 130.269 19.1424 132.376C19.0662 133.391 19.0065 134.191 18.9628 134.768C18.948 135.023 18.9356 135.227 18.9262 135.391C18.9203 135.532 18.9203 135.605 18.9273 135.605Z" fill="#334F55"/>
<path fill-rule="evenodd" clip-rule="evenodd" d="M48.9057 3.27455C48.1188 1.04778 45.5078 -0.35584 43.2158 0.214583C42.6889 0.345674 42.1726 0.567702 41.6303 0.555892C40.9645 0.54172 40.359 0.177972 39.7057 0.0474714C38.3003 -0.233016 36.7639 0.762567 36.446 2.15969C35.3296 1.92998 34.0867 2.08765 33.1994 2.80333C32.3127 3.51961 31.9028 4.85886 32.4409 5.8633C32.6725 6.29378 33.0499 6.63627 33.2602 7.07737C33.6076 7.80487 33.4493 8.67762 33.6933 9.44586C34.0554 10.5843 35.2593 11.287 36.4466 11.4223C37.634 11.5569 38.8202 11.2345 39.9721 10.9156" fill="#3A312B"/>
<path fill-rule="evenodd" clip-rule="evenodd" d="M43.425 26.628C43.2756 25.486 43.1769 24.6841 43.1769 24.6841C43.1769 24.6841 39.3708 24.6581 37.8338 19.9442C37.0694 17.6005 36.5631 13.6376 36.2536 10.3822C35.9753 7.45211 38.1912 4.87988 41.1312 4.72635L51.2445 4.19727L51.4619 5.76327L54.1267 25.1996C54.5337 28.1651 52.4478 30.895 49.4788 31.2835C46.5222 31.6703 43.8114 29.5841 43.425 26.628Z" fill="#F9E3B3"/>
<path fill-rule="evenodd" clip-rule="evenodd" d="M37.6859 13.1722C37.7267 13.5017 38.0392 13.7391 38.3836 13.703C38.728 13.667 38.9749 13.3718 38.9341 13.0423C38.894 12.7134 38.5815 12.4754 38.2371 12.5114C37.8927 12.5468 37.6458 12.8433 37.6859 13.1722Z" fill="#132529"/>
<path fill-rule="evenodd" clip-rule="evenodd" d="M37.4353 12.2978C37.5251 12.3663 37.9398 11.9441 38.6079 11.8395C39.2736 11.7256 39.8183 11.9913 39.8774 11.898C39.9069 11.8561 39.8053 11.7226 39.5678 11.601C39.3333 11.4799 38.9511 11.3866 38.5352 11.4545C38.1194 11.523 37.7945 11.7315 37.6178 11.9199C37.4377 12.11 37.3916 12.2677 37.4353 12.2978Z" fill="#132529"/>
<path fill-rule="evenodd" clip-rule="evenodd" d="M44.0316 12.0965C44.0724 12.426 44.3843 12.6628 44.7293 12.6273C45.0737 12.5913 45.3206 12.2961 45.2798 11.966C45.2397 11.6371 44.9272 11.3997 44.5828 11.4351C44.2384 11.4712 43.9915 11.767 44.0316 12.0965Z" fill="#132529"/>
<path fill-rule="evenodd" clip-rule="evenodd" d="M44.0182 11.3808C44.108 11.4493 44.5233 11.0271 45.1908 10.9226C45.856 10.8086 46.4006 11.0743 46.4603 10.981C46.4898 10.9391 46.3894 10.8056 46.1502 10.6846C45.9156 10.5629 45.534 10.4696 45.1182 10.5375C44.7029 10.6054 44.3774 10.8145 44.2013 11.0029C44.0212 11.193 43.9745 11.3501 44.0182 11.3808Z" fill="#132529"/>
<path fill-rule="evenodd" clip-rule="evenodd" d="M42.3818 16.7142C42.3794 16.6758 41.9529 16.6699 41.2665 16.6911C41.0934 16.7006 40.9268 16.6923 40.8789 16.5801C40.8193 16.4638 40.8618 16.2689 40.9126 16.0575C41.0077 15.6194 41.1064 15.1606 41.2109 14.6793C41.6174 12.7206 41.882 11.1209 41.8028 11.1056C41.7243 11.0896 41.3309 12.6645 40.9244 14.6238C40.8281 15.1056 40.736 15.5656 40.6492 16.0056C40.6155 16.2099 40.5393 16.4467 40.6669 16.6888C40.733 16.8086 40.873 16.8813 40.987 16.8931C41.1011 16.909 41.1973 16.8954 41.2824 16.8878C41.9653 16.8163 42.3853 16.7525 42.3818 16.7142Z" fill="#132529"/>
<path fill-rule="evenodd" clip-rule="evenodd" d="M43.1768 24.6848C43.1768 24.6848 46.4647 24.3777 49.3806 21.9277C49.3806 21.9277 48.3368 25.4991 43.4237 25.8162L43.1768 24.6848Z" fill="#E4C98F"/>
<path fill-rule="evenodd" clip-rule="evenodd" d="M44.4205 16.8629C44.3106 16.8742 44.4246 17.5987 43.8859 18.211C43.3489 18.8257 42.5632 18.8671 42.5738 18.9692C42.5709 19.0159 42.7682 19.0826 43.0955 19.0395C43.4174 18.9999 43.8681 18.8228 44.1978 18.4478C44.5256 18.0723 44.6213 17.6259 44.5989 17.3247C44.5788 17.0177 44.4695 16.8505 44.4205 16.8629Z" fill="#132529"/>
<path fill-rule="evenodd" clip-rule="evenodd" d="M43.4299 8.79121C43.5245 8.96246 44.1772 8.76995 44.9759 8.74043C45.7734 8.69378 46.4415 8.8231 46.5195 8.64358C46.5531 8.55855 46.4167 8.40502 46.1331 8.27038C45.8519 8.13515 45.4213 8.03241 44.9428 8.05484C44.4649 8.07847 44.0461 8.22137 43.7791 8.38258C43.5103 8.54379 43.388 8.70972 43.4299 8.79121Z" fill="#132529"/>
<path fill-rule="evenodd" clip-rule="evenodd" d="M37.3741 10.3282C37.5153 10.4611 37.9501 10.2308 38.5024 10.1351C39.0506 10.0206 39.5397 10.0749 39.6224 9.89951C39.6573 9.81448 39.5598 9.67453 39.3318 9.56352C39.1079 9.4525 38.7517 9.38932 38.3736 9.46136C37.9955 9.5334 37.6878 9.72354 37.52 9.90955C37.3493 10.0961 37.3103 10.2621 37.3741 10.3282Z" fill="#132529"/>
<path fill-rule="evenodd" clip-rule="evenodd" d="M35.7518 8.26216C35.7518 8.26216 38.4278 9.16326 41.5019 7.11009C43.5192 5.76316 45.9625 4.92051 46.5709 5.28308C47.1794 5.64565 47.5769 7.84881 49.7922 8.22614C49.7922 8.22614 50.1821 12.4766 51.8509 12.1122C53.04 11.8524 52.3447 7.16324 51.8467 4.48945C51.6471 3.41769 50.7285 2.63114 49.6386 2.58921L46.5243 2.46875L42.6355 3.5535L38.465 4.68963L35.2939 6.00467L35.7518 8.26216Z" fill="#3A312B"/>
<path fill-rule="evenodd" clip-rule="evenodd" d="M51.4771 10.3927C51.5408 10.3484 54.1212 8.99142 54.5996 11.8075C55.077 14.623 52.1505 14.522 52.1316 14.4417C52.1133 14.362 51.4771 10.3927 51.4771 10.3927Z" fill="#F9E3B3"/>
<path fill-rule="evenodd" clip-rule="evenodd" d="M52.8111 13.2297C52.8223 13.2185 52.866 13.2557 52.9558 13.2799C53.0427 13.303 53.1862 13.3047 53.3238 13.225C53.6027 13.0656 53.7734 12.5507 53.7007 12.0405C53.6647 11.783 53.5696 11.548 53.4444 11.362C53.3233 11.1701 53.1655 11.049 53.0113 11.0478C52.8566 11.0384 52.7656 11.1465 52.7443 11.2315C52.7201 11.3165 52.7473 11.3697 52.7331 11.3767C52.7266 11.3856 52.6652 11.3401 52.6675 11.2197C52.6699 11.1618 52.6918 11.0898 52.7491 11.0248C52.807 10.9581 52.9015 10.9132 53.0084 10.9073C53.2276 10.8849 53.4573 11.052 53.5944 11.2563C53.7444 11.4606 53.8573 11.7234 53.898 12.0127C53.976 12.5831 53.7758 13.1636 53.3882 13.3502C53.1986 13.4352 53.0238 13.4039 52.9269 13.3514C52.8276 13.2971 52.8022 13.2362 52.8111 13.2297Z" fill="#AC6150"/>
<path fill-rule="evenodd" clip-rule="evenodd" d="M37.1053 1.12443C37.1302 1.11321 37.2034 1.27324 37.4037 1.50294C37.5992 1.73264 37.9554 2.01195 38.4681 2.18556C38.9809 2.36625 39.6354 2.41644 40.3443 2.26823C41.0555 2.13359 41.8058 1.83067 42.6174 1.54605C43.4291 1.26261 44.2579 1.06243 45.0311 1.11616C45.8044 1.15041 46.4784 1.50471 46.8642 1.9405C47.2653 2.36979 47.423 2.84987 47.4271 3.17346C47.4372 3.50119 47.3551 3.66771 47.3426 3.66298C47.3149 3.65826 47.3527 3.48465 47.3078 3.18527C47.2688 2.88884 47.094 2.46722 46.7088 2.09226C46.329 1.7108 45.7323 1.41791 45.0146 1.39901C44.301 1.36358 43.5153 1.55845 42.7178 1.83657C41.9186 2.11647 41.1471 2.41998 40.3957 2.54694C39.6484 2.68807 38.9283 2.6113 38.3931 2.38987C37.8514 2.17611 37.4875 1.84484 37.3091 1.57675C37.1266 1.30867 37.0912 1.12916 37.1053 1.12443Z" fill="#334F55"/>
<path fill-rule="evenodd" clip-rule="evenodd" d="M46.623 3.82075C46.6005 3.83847 46.4794 3.67077 46.1864 3.46823C45.8988 3.26273 45.4043 3.06669 44.7687 3.04838C44.1301 3.01768 43.3852 3.20191 42.6161 3.57393C41.8416 3.92763 41.0329 4.45318 40.0547 4.77146C38.0728 5.40801 36.1322 4.88778 35.0069 4.21934C34.4298 3.8863 34.018 3.53495 33.7634 3.26687C33.51 2.99701 33.3942 2.82813 33.4078 2.81691C33.4527 2.76908 33.9637 3.42925 35.1109 4.02861C36.2256 4.62678 38.0852 5.08265 39.9596 4.47916C40.8864 4.17978 41.6963 3.66722 42.4985 3.31647C43.2919 2.948 44.1071 2.7679 44.7799 2.83167C45.4551 2.87891 45.9761 3.12397 46.2585 3.37257C46.5468 3.6188 46.6348 3.81426 46.623 3.82075Z" fill="#334F55"/>
<path fill-rule="evenodd" clip-rule="evenodd" d="M37.8751 51.8056L24.156 40.1172L19.6328 41.1399C19.6328 41.1399 24.4 51.0462 27.8504 54.6772C27.8504 54.6772 31.2601 59.24 36.8809 57.2677C42.5022 55.2949 37.8751 51.8056 37.8751 51.8056Z" fill="#F9E3B3"/>
<path fill-rule="evenodd" clip-rule="evenodd" d="M23.1205 27.248H17.29C16.4081 27.248 15.6206 28.2702 15.9379 29.1058L21.8008 40.5213C22.0277 40.9636 22.4837 41.2423 22.9823 41.2423L30.0899 41.2276C30.9051 41.1177 31.2029 40.2131 30.865 39.723L25.2076 28.5466C24.8177 27.7517 24.0078 27.248 23.1205 27.248Z" fill="#334F55"/>
<path fill-rule="evenodd" clip-rule="evenodd" d="M22.7271 27.9355H16.8967C16.1659 27.9355 15.6933 28.7056 16.0259 29.3539L21.7501 40.5215C21.9763 40.9638 22.4324 41.2425 22.9309 41.2425H29.9577C30.3859 41.2425 30.6642 40.7919 30.471 40.4105L24.8136 29.2341C24.4237 28.4392 23.6144 27.9355 22.7271 27.9355Z" fill="#132529"/>
<path fill-rule="evenodd" clip-rule="evenodd" d="M22.2326 32.6104L18.6841 34.0276L17.9238 36.8856L19.6328 41.1402L25.9034 42.0519L24.0662 40.1759L24.3025 38.5425C24.3025 38.5425 26.0522 37.994 26.0954 37.7265C26.1385 37.459 25.8786 36.5614 25.6098 36.5183C25.3416 36.4752 23.5068 37.1584 23.5068 37.1584C23.5068 37.1584 25.6789 35.4394 25.618 35.1637C25.5572 34.8873 25.3239 34.1817 24.8909 34.1031C24.4579 34.0246 20.9537 35.6756 20.9537 35.6756L20.3842 36.9724L19.888 34.8985C19.888 34.8985 23.0017 34.0258 22.2326 32.6104Z" fill="#F9E3B3"/>
<path fill-rule="evenodd" clip-rule="evenodd" d="M22.6786 39.3115C22.6579 39.3174 22.5912 39.1881 22.5587 38.9578C22.525 38.7287 22.5416 38.398 22.665 38.0626C22.7897 37.7272 22.9929 37.4656 23.1677 37.3138C23.342 37.1603 23.4767 37.1048 23.4891 37.1237C23.5239 37.1656 23.0614 37.498 22.8369 38.1258C22.5983 38.7487 22.733 39.3015 22.6786 39.3115Z" fill="#AC6150"/>
<path fill-rule="evenodd" clip-rule="evenodd" d="M20.9926 38.6925C20.9714 38.6819 21.0978 38.3465 21.1332 37.7631C21.1604 37.4737 21.1769 37.1153 21.3116 36.7332C21.3796 36.5449 21.48 36.3488 21.6383 36.1846C21.7966 36.0181 22.0063 35.9048 22.2184 35.8203C23.0667 35.5127 23.8305 35.2635 24.3899 35.0828C24.9482 34.905 25.2979 34.807 25.3061 34.8306C25.3144 34.8542 24.9801 34.996 24.433 35.205C23.8878 35.4152 23.1193 35.688 22.2869 35.9898C22.0855 36.0707 21.9024 36.1699 21.7671 36.3098C21.6294 36.448 21.5367 36.6198 21.4699 36.7923C21.337 37.1407 21.3051 37.4879 21.2614 37.7778C21.1929 38.3671 21.0163 38.7073 20.9926 38.6925Z" fill="#AC6150"/>
<path fill-rule="evenodd" clip-rule="evenodd" d="M20.1784 38.0506C20.1282 38.0423 20.1383 37.7294 20.2009 37.3514C20.2629 36.9735 20.3545 36.6735 20.4041 36.6818C20.4543 36.6901 20.4443 37.003 20.3817 37.3816C20.319 37.7595 20.2281 38.0589 20.1784 38.0506Z" fill="#AC6150"/>
<path fill-rule="evenodd" clip-rule="evenodd" d="M20.083 30.0886C20.083 30.4984 20.4156 30.8308 20.8261 30.8308C21.2367 30.8308 21.5693 30.4984 21.5693 30.0886C21.5693 29.6782 21.2367 29.3457 20.8261 29.3457C20.4156 29.3457 20.083 29.6782 20.083 30.0886Z" fill="#FAF9F6"/>
</svg>
